<svg xmlns="http://www.w3.org/2000/svg" width="615" height="719" viewBox="0 0 615 719" font-family="Segoe UI, Arial, sans-serif">
<rect x="0" y="0" width="615" height="719" fill="#fcfbf8"/>
<text x="105" y="34" font-size="23" font-weight="700" fill="#222">V1 — FRONT</text>
<text x="105" y="58" font-size="13" fill="#666">set udefra · mål i mm · 0 = venstre hjørne / bundrem-overkant</text>
<rect x="105" y="82" width="14" height="12" fill="#e6c894" stroke="#9c7b4e"/>
<text x="124" y="92" font-size="11" fill="#555">Stud 45×95</text>
<rect x="206" y="82" width="14" height="12" fill="#a9be8e" stroke="#6f855a"/>
<text x="225" y="92" font-size="11" fill="#555">Bundrem (PT)</text>
<rect x="319" y="82" width="14" height="12" fill="#f1ddb0" stroke="#b89b63"/>
<text x="338" y="92" font-size="11" fill="#555">Toprem (gran)</text>
<rect x="438" y="82" width="14" height="12" fill="#d2a266" stroke="#946a35"/>
<text x="457" y="92" font-size="11" fill="#555">Header/sål/cripple</text>
<rect x="234.2" y="134.6" width="211.5" height="470.0" fill="#ffffff" stroke="#b9b9b9" stroke-width="1.3" stroke-dasharray="5 4"/>
<text x="340.0" y="365.6" font-size="12.5" fill="#8a8a8a" text-anchor="middle">DØR</text>
<text x="340.0" y="380.6" font-size="12.5" fill="#8a8a8a" text-anchor="middle">900×2000</text>
<rect x="126.2" y="263.8" width="86.9" height="105.8" fill="#ffffff" stroke="#b9b9b9" stroke-width="1.3" stroke-dasharray="5 4"/>
<text x="169.6" y="312.7" font-size="12.5" fill="#8a8a8a" text-anchor="middle">VINDUE</text>
<text x="169.6" y="327.7" font-size="12.5" fill="#8a8a8a" text-anchor="middle">415×450</text>
<rect x="466.9" y="263.8" width="86.9" height="105.8" fill="#ffffff" stroke="#b9b9b9" stroke-width="1.3" stroke-dasharray="5 4"/>
<text x="510.4" y="312.7" font-size="12.5" fill="#8a8a8a" text-anchor="middle">VINDUE</text>
<text x="510.4" y="327.7" font-size="12.5" fill="#8a8a8a" text-anchor="middle">415×450</text>
<rect x="105.0" y="604.6" width="470.0" height="10.6" fill="#a9be8e" stroke="#6f855a" stroke-width="1" rx="0"/>
<rect x="105.0" y="124.0" width="470.0" height="10.6" fill="#f1ddb0" stroke="#b89b63" stroke-width="1" rx="0"/>
<rect x="105.0" y="134.6" width="10.6" height="470.0" fill="#e6c894" stroke="#9c7b4e" stroke-width="1" rx="0"/>
<rect x="213.1" y="134.6" width="10.6" height="470.0" fill="#e6c894" stroke="#9c7b4e" stroke-width="1" rx="0"/>
<rect x="223.7" y="134.6" width="10.6" height="470.0" fill="#e6c894" stroke="#9c7b4e" stroke-width="1" rx="0"/>
<rect x="445.8" y="134.6" width="10.6" height="470.0" fill="#e6c894" stroke="#9c7b4e" stroke-width="1" rx="0"/>
<rect x="456.3" y="134.6" width="10.6" height="470.0" fill="#e6c894" stroke="#9c7b4e" stroke-width="1" rx="0"/>
<rect x="564.4" y="134.6" width="10.6" height="470.0" fill="#e6c894" stroke="#9c7b4e" stroke-width="1" rx="0"/>
<rect x="115.6" y="380.1" width="10.6" height="224.4" fill="#d2a266" stroke="#946a35" stroke-width="1" rx="0"/>
<text x="120.9" y="492.4" font-size="10" fill="#5a3d18" text-anchor="middle" transform="rotate(-90 120.9 492.4)">955</text>
<rect x="115.6" y="134.6" width="10.6" height="118.7" fill="#d2a266" stroke="#946a35" stroke-width="1" rx="0"/>
<text x="120.9" y="193.9" font-size="10" fill="#5a3d18" text-anchor="middle" transform="rotate(-90 120.9 193.9)">505</text>
<rect x="553.8" y="380.1" width="10.6" height="224.4" fill="#d2a266" stroke="#946a35" stroke-width="1" rx="0"/>
<text x="559.1" y="492.4" font-size="10" fill="#5a3d18" text-anchor="middle" transform="rotate(-90 559.1 492.4)">955</text>
<rect x="553.8" y="134.6" width="10.6" height="118.7" fill="#d2a266" stroke="#946a35" stroke-width="1" rx="0"/>
<text x="559.1" y="193.9" font-size="10" fill="#5a3d18" text-anchor="middle" transform="rotate(-90 559.1 193.9)">505</text>
<rect x="115.6" y="253.2" width="97.5" height="10.6" fill="#d2a266" stroke="#946a35" stroke-width="1" rx="0"/>
<text x="164.3" y="262.5" font-size="10.5" fill="#5a3d18" text-anchor="middle">415</text>
<rect x="466.9" y="253.2" width="97.5" height="10.6" fill="#d2a266" stroke="#946a35" stroke-width="1" rx="0"/>
<text x="515.7" y="262.5" font-size="10.5" fill="#5a3d18" text-anchor="middle">415</text>
<rect x="115.6" y="369.6" width="97.5" height="10.6" fill="#d2a266" stroke="#946a35" stroke-width="1" rx="0"/>
<text x="164.3" y="378.9" font-size="10.5" fill="#5a3d18" text-anchor="middle">415</text>
<rect x="466.9" y="369.6" width="97.5" height="10.6" fill="#d2a266" stroke="#946a35" stroke-width="1" rx="0"/>
<text x="515.7" y="378.9" font-size="10.5" fill="#5a3d18" text-anchor="middle">415</text>
<text x="340.0" y="129.4" font-size="11" fill="#7a6533" text-anchor="middle">TOPREM 45×95 · 2000</text>
<text x="340.0" y="609.7" font-size="11" fill="#4f6038" text-anchor="middle" dy="4">BUNDREM 95×45 · 2000 (PT)</text>
<line x1="105.0" y1="649.1" x2="575.0" y2="649.1" stroke="#3a3a3a" stroke-width="1"/>
<line x1="105.0" y1="615.1" x2="105.0" y2="654.1" stroke="#bbb" stroke-width="0.8"/>
<line x1="105.0" y1="645.1" x2="105.0" y2="653.1" stroke="#3a3a3a" stroke-width="1"/>
<line x1="213.1" y1="615.1" x2="213.1" y2="654.1" stroke="#bbb" stroke-width="0.8"/>
<line x1="213.1" y1="645.1" x2="213.1" y2="653.1" stroke="#3a3a3a" stroke-width="1"/>
<line x1="234.2" y1="615.1" x2="234.2" y2="654.1" stroke="#bbb" stroke-width="0.8"/>
<line x1="234.2" y1="645.1" x2="234.2" y2="653.1" stroke="#3a3a3a" stroke-width="1"/>
<line x1="445.8" y1="615.1" x2="445.8" y2="654.1" stroke="#bbb" stroke-width="0.8"/>
<line x1="445.8" y1="645.1" x2="445.8" y2="653.1" stroke="#3a3a3a" stroke-width="1"/>
<line x1="466.9" y1="615.1" x2="466.9" y2="654.1" stroke="#bbb" stroke-width="0.8"/>
<line x1="466.9" y1="645.1" x2="466.9" y2="653.1" stroke="#3a3a3a" stroke-width="1"/>
<line x1="575.0" y1="615.1" x2="575.0" y2="654.1" stroke="#bbb" stroke-width="0.8"/>
<line x1="575.0" y1="645.1" x2="575.0" y2="653.1" stroke="#3a3a3a" stroke-width="1"/>
<text x="159.1" y="643.1" font-size="11.5" fill="#3a3a3a" text-anchor="middle">460</text>
<text x="223.7" y="643.1" font-size="11.5" fill="#3a3a3a" text-anchor="middle">90</text>
<text x="340.0" y="643.1" font-size="11.5" fill="#3a3a3a" text-anchor="middle">900</text>
<text x="456.3" y="643.1" font-size="11.5" fill="#3a3a3a" text-anchor="middle">90</text>
<text x="521.0" y="643.1" font-size="11.5" fill="#3a3a3a" text-anchor="middle">460</text>
<text x="105.0" y="667.1" font-size="10.5" fill="#777" text-anchor="middle">0</text>
<text x="213.1" y="667.1" font-size="10.5" fill="#777" text-anchor="middle">460</text>
<text x="234.2" y="679.1" font-size="10.5" fill="#777" text-anchor="middle">550</text>
<text x="445.8" y="667.1" font-size="10.5" fill="#777" text-anchor="middle">1450</text>
<text x="466.9" y="679.1" font-size="10.5" fill="#777" text-anchor="middle">1540</text>
<text x="575.0" y="667.1" font-size="10.5" fill="#777" text-anchor="middle">2000</text>
<line x1="115.6" y1="219.2" x2="213.1" y2="219.2" stroke="#3a3a3a" stroke-width="0.9"/>
<line x1="115.6" y1="216.2" x2="115.6" y2="222.2" stroke="#3a3a3a" stroke-width="0.9"/>
<line x1="213.1" y1="216.2" x2="213.1" y2="222.2" stroke="#3a3a3a" stroke-width="0.9"/>
<text x="164.3" y="215.2" font-size="10.5" fill="#3a3a3a" text-anchor="middle">vindue 45→460</text>
<line x1="466.9" y1="219.2" x2="564.4" y2="219.2" stroke="#3a3a3a" stroke-width="0.9"/>
<line x1="466.9" y1="216.2" x2="466.9" y2="222.2" stroke="#3a3a3a" stroke-width="0.9"/>
<line x1="564.4" y1="216.2" x2="564.4" y2="222.2" stroke="#3a3a3a" stroke-width="0.9"/>
<text x="515.7" y="215.2" font-size="10.5" fill="#3a3a3a" text-anchor="middle">1540→1955</text>
<line x1="59.0" y1="604.6" x2="59.0" y2="134.6" stroke="#3a3a3a" stroke-width="1"/>
<line x1="55.0" y1="604.6" x2="63.0" y2="604.6" stroke="#3a3a3a" stroke-width="1"/>
<line x1="63.0" y1="604.6" x2="105.0" y2="604.6" stroke="#ddd" stroke-width="0.6"/>
<text x="52.0" y="608.6" font-size="10.5" fill="#3a3a3a" text-anchor="end">0</text>
<line x1="55.0" y1="369.6" x2="63.0" y2="369.6" stroke="#3a3a3a" stroke-width="1"/>
<line x1="63.0" y1="369.6" x2="105.0" y2="369.6" stroke="#ddd" stroke-width="0.6"/>
<text x="52.0" y="373.6" font-size="10.5" fill="#3a3a3a" text-anchor="end">1000</text>
<line x1="55.0" y1="263.8" x2="63.0" y2="263.8" stroke="#3a3a3a" stroke-width="1"/>
<line x1="63.0" y1="263.8" x2="105.0" y2="263.8" stroke="#ddd" stroke-width="0.6"/>
<text x="52.0" y="267.8" font-size="10.5" fill="#3a3a3a" text-anchor="end">1450</text>
<line x1="55.0" y1="134.6" x2="63.0" y2="134.6" stroke="#3a3a3a" stroke-width="1"/>
<line x1="63.0" y1="134.6" x2="105.0" y2="134.6" stroke="#ddd" stroke-width="0.6"/>
<text x="52.0" y="138.6" font-size="10.5" fill="#3a3a3a" text-anchor="end">2000</text>
<text x="29.0" y="346.1" font-size="11" fill="#777" text-anchor="middle" transform="rotate(-90 29.0 346.1)">højde fra bundrem (mm)</text>
<text x="105" y="707" font-size="11" fill="#555">Lodrette studs: 45×95 · L=2000. Dør 2000 = væghøjde → toprem er dør-header (ingen cripple over dør). Jamb-par (45+45) langs dør/vindue.</text>
</svg>