<svg xmlns="http://www.w3.org/2000/svg" width="805" height="719" viewBox="0 0 805 719" font-family="Segoe UI, Arial, sans-serif">
<rect x="0" y="0" width="805" height="719" fill="#fcfbf8"/>
<text x="105" y="34" font-size="23" font-weight="700" fill="#222">V3 — VENSTRE GAVL</text>
<text x="105" y="58" font-size="13" fill="#666">set udefra · mål i mm · 0 = hjørne mod V1 (Y=95) / bundrem-overkant</text>
<rect x="105" y="82" width="14" height="12" fill="#e6c894" stroke="#9c7b4e"/>
<text x="124" y="92" font-size="11" fill="#555">Stud 45×95</text>
<rect x="206" y="82" width="14" height="12" fill="#a9be8e" stroke="#6f855a"/>
<text x="225" y="92" font-size="11" fill="#555">Bundrem (PT)</text>
<rect x="319" y="82" width="14" height="12" fill="#f1ddb0" stroke="#b89b63"/>
<text x="338" y="92" font-size="11" fill="#555">Toprem (gran)</text>
<rect x="438" y="82" width="14" height="12" fill="#d2a266" stroke="#946a35"/>
<text x="457" y="92" font-size="11" fill="#555">Header/sål/cripple</text>
<rect x="352.9" y="205.1" width="164.5" height="141.0" fill="#ffffff" stroke="#b9b9b9" stroke-width="1.3" stroke-dasharray="5 4"/>
<text x="435.2" y="271.6" font-size="12.5" fill="#8a8a8a" text-anchor="middle">VINDUE</text>
<text x="435.2" y="286.6" font-size="12.5" fill="#8a8a8a" text-anchor="middle">700×600</text>
<rect x="105.0" y="604.6" width="660.3" height="10.6" fill="#a9be8e" stroke="#6f855a" stroke-width="1" rx="0"/>
<rect x="105.0" y="124.0" width="660.3" height="10.6" fill="#f1ddb0" stroke="#b89b63" stroke-width="1" rx="0"/>
<rect x="105.0" y="134.6" width="10.6" height="470.0" fill="#e6c894" stroke="#9c7b4e" stroke-width="1" rx="0"/>
<rect x="246.0" y="134.6" width="10.6" height="470.0" fill="#e6c894" stroke="#9c7b4e" stroke-width="1" rx="0"/>
<rect x="669.0" y="134.6" width="10.6" height="470.0" fill="#e6c894" stroke="#9c7b4e" stroke-width="1" rx="0"/>
<rect x="754.8" y="134.6" width="10.6" height="470.0" fill="#e6c894" stroke="#9c7b4e" stroke-width="1" rx="0"/>
<rect x="342.4" y="134.6" width="10.6" height="470.0" fill="#e6c894" stroke="#9c7b4e" stroke-width="1" rx="0"/>
<rect x="517.4" y="134.6" width="10.6" height="470.0" fill="#e6c894" stroke="#9c7b4e" stroke-width="1" rx="0"/>
<rect x="352.9" y="194.5" width="164.5" height="10.6" fill="#d2a266" stroke="#946a35" stroke-width="1" rx="0"/>
<text x="435.2" y="203.8" font-size="10.5" fill="#5a3d18" text-anchor="middle">700</text>
<rect x="352.9" y="346.1" width="164.5" height="10.6" fill="#d2a266" stroke="#946a35" stroke-width="1" rx="0"/>
<text x="435.2" y="355.4" font-size="10.5" fill="#5a3d18" text-anchor="middle">700</text>
<rect x="418.1" y="356.6" width="10.6" height="247.9" fill="#d2a266" stroke="#946a35" stroke-width="1" rx="0"/>
<text x="423.4" y="480.6" font-size="10" fill="#5a3d18" text-anchor="middle" transform="rotate(-90 423.4 480.6)">1055</text>
<rect x="418.1" y="134.6" width="10.6" height="59.9" fill="#d2a266" stroke="#946a35" stroke-width="1" rx="0"/>
<text x="423.4" y="164.5" font-size="10" fill="#5a3d18" text-anchor="middle" transform="rotate(-90 423.4 164.5)">255</text>
<text x="435.2" y="129.4" font-size="11" fill="#7a6533" text-anchor="middle">TOPREM 45×95 · 2810</text>
<text x="435.2" y="609.7" font-size="11" fill="#4f6038" text-anchor="middle" dy="4">BUNDREM 95×45 · 2810 (PT)</text>
<line x1="105.0" y1="649.1" x2="765.3" y2="649.1" stroke="#3a3a3a" stroke-width="1"/>
<line x1="105.0" y1="615.1" x2="105.0" y2="654.1" stroke="#bbb" stroke-width="0.8"/>
<line x1="105.0" y1="645.1" x2="105.0" y2="653.1" stroke="#3a3a3a" stroke-width="1"/>
<line x1="246.0" y1="615.1" x2="246.0" y2="654.1" stroke="#bbb" stroke-width="0.8"/>
<line x1="246.0" y1="645.1" x2="246.0" y2="653.1" stroke="#3a3a3a" stroke-width="1"/>
<line x1="352.9" y1="615.1" x2="352.9" y2="654.1" stroke="#bbb" stroke-width="0.8"/>
<line x1="352.9" y1="645.1" x2="352.9" y2="653.1" stroke="#3a3a3a" stroke-width="1"/>
<line x1="517.4" y1="615.1" x2="517.4" y2="654.1" stroke="#bbb" stroke-width="0.8"/>
<line x1="517.4" y1="645.1" x2="517.4" y2="653.1" stroke="#3a3a3a" stroke-width="1"/>
<line x1="669.0" y1="615.1" x2="669.0" y2="654.1" stroke="#bbb" stroke-width="0.8"/>
<line x1="669.0" y1="645.1" x2="669.0" y2="653.1" stroke="#3a3a3a" stroke-width="1"/>
<line x1="765.3" y1="615.1" x2="765.3" y2="654.1" stroke="#bbb" stroke-width="0.8"/>
<line x1="765.3" y1="645.1" x2="765.3" y2="653.1" stroke="#3a3a3a" stroke-width="1"/>
<text x="175.5" y="643.1" font-size="11.5" fill="#3a3a3a" text-anchor="middle">600</text>
<text x="299.5" y="643.1" font-size="11.5" fill="#3a3a3a" text-anchor="middle">455</text>
<text x="435.2" y="643.1" font-size="11.5" fill="#3a3a3a" text-anchor="middle">700</text>
<text x="593.2" y="643.1" font-size="11.5" fill="#3a3a3a" text-anchor="middle">645</text>
<text x="717.2" y="643.1" font-size="11.5" fill="#3a3a3a" text-anchor="middle">410</text>
<text x="105.0" y="667.1" font-size="10.5" fill="#777" text-anchor="middle">0</text>
<text x="246.0" y="667.1" font-size="10.5" fill="#777" text-anchor="middle">600</text>
<text x="352.9" y="667.1" font-size="10.5" fill="#777" text-anchor="middle">1055</text>
<text x="517.4" y="667.1" font-size="10.5" fill="#777" text-anchor="middle">1755</text>
<text x="669.0" y="667.1" font-size="10.5" fill="#777" text-anchor="middle">2400</text>
<text x="765.3" y="667.1" font-size="10.5" fill="#777" text-anchor="middle">2810</text>
<line x1="352.9" y1="169.8" x2="517.4" y2="169.8" stroke="#3a3a3a" stroke-width="0.9"/>
<line x1="352.9" y1="166.8" x2="352.9" y2="172.8" stroke="#3a3a3a" stroke-width="0.9"/>
<line x1="517.4" y1="166.8" x2="517.4" y2="172.8" stroke="#3a3a3a" stroke-width="0.9"/>
<text x="435.2" y="165.8" font-size="10.5" fill="#3a3a3a" text-anchor="middle">vindue 1055→1755</text>
<line x1="59.0" y1="604.6" x2="59.0" y2="134.6" stroke="#3a3a3a" stroke-width="1"/>
<line x1="55.0" y1="604.6" x2="63.0" y2="604.6" stroke="#3a3a3a" stroke-width="1"/>
<line x1="63.0" y1="604.6" x2="105.0" y2="604.6" stroke="#ddd" stroke-width="0.6"/>
<text x="52.0" y="608.6" font-size="10.5" fill="#3a3a3a" text-anchor="end">0</text>
<line x1="55.0" y1="346.1" x2="63.0" y2="346.1" stroke="#3a3a3a" stroke-width="1"/>
<line x1="63.0" y1="346.1" x2="105.0" y2="346.1" stroke="#ddd" stroke-width="0.6"/>
<text x="52.0" y="350.1" font-size="10.5" fill="#3a3a3a" text-anchor="end">1100</text>
<line x1="55.0" y1="205.1" x2="63.0" y2="205.1" stroke="#3a3a3a" stroke-width="1"/>
<line x1="63.0" y1="205.1" x2="105.0" y2="205.1" stroke="#ddd" stroke-width="0.6"/>
<text x="52.0" y="209.1" font-size="10.5" fill="#3a3a3a" text-anchor="end">1700</text>
<line x1="55.0" y1="134.6" x2="63.0" y2="134.6" stroke="#3a3a3a" stroke-width="1"/>
<line x1="63.0" y1="134.6" x2="105.0" y2="134.6" stroke="#ddd" stroke-width="0.6"/>
<text x="52.0" y="138.6" font-size="10.5" fill="#3a3a3a" text-anchor="end">2000</text>
<text x="29.0" y="346.1" font-size="11" fill="#777" text-anchor="middle" transform="rotate(-90 29.0 346.1)">højde fra bundrem (mm)</text>
<text x="105" y="707" font-size="11" fill="#555">Sidevindue 700×600 centreret (Y=1150..1850). 6 studs 45×95 · L=2000: kant/600/2400/end-2765 + 2 vindue-jambs.</text>
</svg>