<svg xmlns="http://www.w3.org/2000/svg" width="805" height="719" viewBox="0 0 805 719" font-family="Segoe UI, Arial, sans-serif">
<rect x="0" y="0" width="805" height="719" fill="#fcfbf8"/>
<text x="105" y="34" font-size="23" font-weight="700" fill="#222">V4 — PARTITION</text>
<text x="105" y="58" font-size="13" fill="#666">set fra yard (+X) · mål i mm · 0 = hjørne mod V1 (Y=95) / bundrem-overkant</text>
<rect x="105" y="82" width="14" height="12" fill="#e6c894" stroke="#9c7b4e"/>
<text x="124" y="92" font-size="11" fill="#555">Stud 45×95</text>
<rect x="206" y="82" width="14" height="12" fill="#a9be8e" stroke="#6f855a"/>
<text x="225" y="92" font-size="11" fill="#555">Bundrem (PT)</text>
<rect x="319" y="82" width="14" height="12" fill="#f1ddb0" stroke="#b89b63"/>
<text x="338" y="92" font-size="11" fill="#555">Toprem (gran)</text>
<rect x="438" y="82" width="14" height="12" fill="#d2a266" stroke="#946a35"/>
<text x="457" y="92" font-size="11" fill="#555">Header/sål/cripple</text>
<rect x="435.2" y="134.6" width="204.4" height="470.0" fill="#ffffff" stroke="#b9b9b9" stroke-width="1.3" stroke-dasharray="5 4"/>
<text x="537.4" y="365.6" font-size="12.5" fill="#8a8a8a" text-anchor="middle">HUS-DØR</text>
<text x="537.4" y="380.6" font-size="12.5" fill="#8a8a8a" text-anchor="middle">870×2000</text>
<rect x="717.2" y="520.0" width="48.2" height="70.5" fill="#ffffff" stroke="#b9b9b9" stroke-width="1.3" stroke-dasharray="5 4"/>
<text x="741.3" y="551.2" font-size="12.5" fill="#8a8a8a" text-anchor="middle">PET-DØR</text>
<text x="741.3" y="566.2" font-size="12.5" fill="#8a8a8a" text-anchor="middle">250×300</text>
<rect x="105.0" y="604.6" width="660.3" height="10.6" fill="#a9be8e" stroke="#6f855a" stroke-width="1" rx="0"/>
<rect x="105.0" y="124.0" width="660.3" height="10.6" fill="#f1ddb0" stroke="#b89b63" stroke-width="1" rx="0"/>
<rect x="105.0" y="134.6" width="10.6" height="470.0" fill="#e6c894" stroke="#9c7b4e" stroke-width="1" rx="0"/>
<rect x="246.0" y="134.6" width="10.6" height="470.0" fill="#e6c894" stroke="#9c7b4e" stroke-width="1" rx="0"/>
<rect x="424.6" y="134.6" width="10.6" height="470.0" fill="#e6c894" stroke="#9c7b4e" stroke-width="1" rx="0"/>
<rect x="639.6" y="134.6" width="10.6" height="470.0" fill="#e6c894" stroke="#9c7b4e" stroke-width="1" rx="0"/>
<rect x="706.6" y="134.6" width="10.6" height="470.0" fill="#e6c894" stroke="#9c7b4e" stroke-width="1" rx="0"/>
<rect x="717.2" y="509.4" width="48.2" height="10.6" fill="#d2a266" stroke="#946a35" stroke-width="1" rx="0"/>
<text x="741.3" y="518.7" font-size="10.5" fill="#5a3d18" text-anchor="middle">205</text>
<rect x="765.3" y="134.6" width="10.6" height="470.0" fill="#e6c894" stroke="#9c7b4e" stroke-width="1" rx="0"/>
<text x="435.2" y="129.4" font-size="11" fill="#7a6533" text-anchor="middle">TOPREM 45×95 · 2810</text>
<text x="435.2" y="609.7" font-size="11" fill="#4f6038" text-anchor="middle" dy="4">BUNDREM 95×45 · 2810 (PT)</text>
<text x="770.0" y="346.1" font-size="10" fill="#5a3d18" text-anchor="middle" transform="rotate(-90 770.0 346.1)">V4/V2-hjørne</text>
<line x1="105.0" y1="649.1" x2="765.3" y2="649.1" stroke="#3a3a3a" stroke-width="1"/>
<line x1="105.0" y1="615.1" x2="105.0" y2="654.1" stroke="#bbb" stroke-width="0.8"/>
<line x1="105.0" y1="645.1" x2="105.0" y2="653.1" stroke="#3a3a3a" stroke-width="1"/>
<line x1="246.0" y1="615.1" x2="246.0" y2="654.1" stroke="#bbb" stroke-width="0.8"/>
<line x1="246.0" y1="645.1" x2="246.0" y2="653.1" stroke="#3a3a3a" stroke-width="1"/>
<line x1="435.2" y1="615.1" x2="435.2" y2="654.1" stroke="#bbb" stroke-width="0.8"/>
<line x1="435.2" y1="645.1" x2="435.2" y2="653.1" stroke="#3a3a3a" stroke-width="1"/>
<line x1="639.6" y1="615.1" x2="639.6" y2="654.1" stroke="#bbb" stroke-width="0.8"/>
<line x1="639.6" y1="645.1" x2="639.6" y2="653.1" stroke="#3a3a3a" stroke-width="1"/>
<line x1="717.2" y1="615.1" x2="717.2" y2="654.1" stroke="#bbb" stroke-width="0.8"/>
<line x1="717.2" y1="645.1" x2="717.2" y2="653.1" stroke="#3a3a3a" stroke-width="1"/>
<line x1="765.3" y1="615.1" x2="765.3" y2="654.1" stroke="#bbb" stroke-width="0.8"/>
<line x1="765.3" y1="645.1" x2="765.3" y2="653.1" stroke="#3a3a3a" stroke-width="1"/>
<text x="175.5" y="643.1" font-size="11.5" fill="#3a3a3a" text-anchor="middle">600</text>
<text x="340.6" y="643.1" font-size="11.5" fill="#3a3a3a" text-anchor="middle">805</text>
<text x="537.4" y="643.1" font-size="11.5" fill="#3a3a3a" text-anchor="middle">870</text>
<text x="678.4" y="643.1" font-size="11.5" fill="#3a3a3a" text-anchor="middle">330</text>
<text x="741.3" y="643.1" font-size="11.5" fill="#3a3a3a" text-anchor="middle">205</text>
<text x="105.0" y="667.1" font-size="10.5" fill="#777" text-anchor="middle">0</text>
<text x="246.0" y="667.1" font-size="10.5" fill="#777" text-anchor="middle">600</text>
<text x="435.2" y="667.1" font-size="10.5" fill="#777" text-anchor="middle">1405</text>
<text x="639.6" y="667.1" font-size="10.5" fill="#777" text-anchor="middle">2275</text>
<text x="717.2" y="667.1" font-size="10.5" fill="#777" text-anchor="middle">2605</text>
<text x="765.3" y="667.1" font-size="10.5" fill="#777" text-anchor="middle">2810</text>
<line x1="59.0" y1="604.6" x2="59.0" y2="134.6" stroke="#3a3a3a" stroke-width="1"/>
<line x1="55.0" y1="604.6" x2="63.0" y2="604.6" stroke="#3a3a3a" stroke-width="1"/>
<line x1="63.0" y1="604.6" x2="105.0" y2="604.6" stroke="#ddd" stroke-width="0.6"/>
<text x="52.0" y="608.6" font-size="10.5" fill="#3a3a3a" text-anchor="end">0</text>
<line x1="55.0" y1="520.0" x2="63.0" y2="520.0" stroke="#3a3a3a" stroke-width="1"/>
<line x1="63.0" y1="520.0" x2="105.0" y2="520.0" stroke="#ddd" stroke-width="0.6"/>
<text x="52.0" y="524.0" font-size="10.5" fill="#3a3a3a" text-anchor="end">360</text>
<line x1="55.0" y1="134.6" x2="63.0" y2="134.6" stroke="#3a3a3a" stroke-width="1"/>
<line x1="63.0" y1="134.6" x2="105.0" y2="134.6" stroke="#ddd" stroke-width="0.6"/>
<text x="52.0" y="138.6" font-size="10.5" fill="#3a3a3a" text-anchor="end">2000</text>
<text x="29.0" y="346.1" font-size="11" fill="#777" text-anchor="middle" transform="rotate(-90 29.0 346.1)">højde fra bundrem (mm)</text>
<text x="105" y="707" font-size="11" fill="#555">Studs 45×95 · L=2000. Hus-dør 2000 = væghøjde → toprem er dør-header. Pet-dør i V4/V2-hjørnet (højre jamb = hjørnestud). Sål-trin h=60.</text>
</svg>